<?xml version="1.0" encoding="UTF-8" standalone="no"?>
<!DOCTYPE svg PUBLIC "-//W3C//DTD SVG 1.1//EN" "http://www.w3.org/Graphics/SVG/1.1/DTD/svg11.dtd">
<svg version="1.1" xmlns="http://www.w3.org/2000/svg" xmlns:xlink="http://www.w3.org/1999/xlink" preserveAspectRatio="xMidYMid meet" viewBox="7 7 84 84" width="80" height="80"><defs><path d="M48 88C77.64 88 88 77.64 88 48C88 18.37 77.64 8 48 8C18.37 8 8 18.37 8 48C8 77.64 18.37 88 48 88ZM48 9C77.16 9 87 18.84 87 48C87 77.16 77.16 87 48 87C18.84 87 9 77.16 9 48C9 18.84 18.84 9 48 9Z" id="a65yLvRzZa"></path><path d="M8.02 45.81L8.08 43.7L8.18 41.65L8.32 39.68L8.5 37.77L8.73 35.94L9 34.17L9.32 32.46L9.68 30.82L10.08 29.25L10.54 27.74L11.04 26.29L11.59 24.91L12.19 23.59L12.84 22.32L13.55 21.12L14.3 19.98L15.11 18.89L15.97 17.86L16.89 16.89L17.86 15.97L18.89 15.11L19.98 14.3L21.12 13.55L22.32 12.84L23.59 12.19L24.91 11.59L26.29 11.04L27.74 10.54L29.25 10.08L30.82 9.68L32.46 9.32L34.17 9L35.94 8.73L37.77 8.5L39.68 8.32L41.65 8.18L43.7 8.08L45.81 8.02L48 8L50.19 8.02L52.3 8.08L54.35 8.18L56.32 8.32L58.23 8.5L60.07 8.73L61.84 9L63.54 9.32L65.18 9.68L66.75 10.08L68.26 10.54L69.71 11.04L71.1 11.59L72.42 12.19L73.68 12.84L74.88 13.55L76.03 14.3L77.11 15.11L78.14 15.97L79.12 16.89L80.03 17.86L80.89 18.89L81.7 19.98L82.46 21.12L83.16 22.32L83.81 23.59L84.41 24.91L84.96 26.29L85.46 27.74L85.92 29.25L86.32 30.82L86.69 32.46L87 34.17L87.27 35.94L87.5 37.77L87.68 39.68L87.82 41.65L87.92 43.7L87.98 45.81L88 48L87.98 50.19L87.92 52.3L87.82 54.35L87.68 56.32L87.5 58.23L87.27 60.07L87 61.84L86.69 63.54L86.32 65.18L85.92 66.75L85.46 68.26L84.96 69.71L84.41 71.1L83.81 72.42L83.16 73.68L82.46 74.88L81.7 76.03L80.89 77.11L80.03 78.14L79.12 79.12L78.14 80.03L77.11 80.89L76.03 81.7L74.88 82.46L73.68 83.16L72.42 83.81L71.1 84.41L69.71 84.96L68.26 85.46L66.75 85.92L65.18 86.32L63.54 86.69L61.84 87L60.07 87.27L58.23 87.5L56.32 87.68L54.35 87.82L52.3 87.92L50.19 87.98L48 88L45.81 87.98L43.7 87.92L41.65 87.82L39.68 87.68L37.77 87.5L35.94 87.27L34.17 87L32.46 86.69L30.82 86.32L29.25 85.92L27.74 85.46L26.29 84.96L24.91 84.41L23.59 83.81L22.32 83.16L21.12 82.46L19.98 81.7L18.89 80.89L17.86 80.03L16.89 79.12L15.97 78.14L15.11 77.11L14.3 76.03L13.55 74.88L12.84 73.68L12.19 72.42L11.59 71.1L11.04 69.71L10.54 68.26L10.08 66.75L9.68 65.18L9.32 63.54L9 61.84L8.73 60.07L8.5 58.23L8.32 56.32L8.18 54.35L8.08 52.3L8.02 50.19L8 48L8 48L8.02 45.81Z" id="aWOavx9QK"></path><path d="M48 88C77.64 88 88 77.64 88 48C88 18.37 77.64 8 48 8C18.37 8 8 18.37 8 48C8 77.64 18.37 88 48 88ZM48 9C77.16 9 87 18.84 87 48C87 77.16 77.16 87 48 87C18.84 87 9 77.16 9 48C9 18.84 18.84 9 48 9Z" id="g6EuFyI4Q2"></path><path d="M53.89 30.45C53.85 30.55 53.46 31.31 53.41 31.41C58.22 32.59 60.43 34.27 62.73 36.34C58.76 34.32 54.84 32.42 48 32.42C41.16 32.42 37.24 34.32 33.27 36.34C35.57 34.27 38.19 32.4 42.58 31.41C42.54 31.31 42.15 30.55 42.11 30.45C36.52 30.98 32.28 34.38 32.28 34.38C32.28 34.38 27.25 41.67 26.39 55.99C31.46 61.84 39.16 61.88 39.16 61.88C39.32 61.67 40.61 59.95 40.77 59.74C38.04 58.79 34.95 57.09 32.28 54.02C35.46 56.43 40.26 58.94 48 58.94C55.74 58.94 60.53 56.43 63.72 54.02C61.05 57.09 57.96 58.79 55.23 59.74C55.39 59.95 56.68 61.67 56.84 61.88C56.84 61.88 64.54 61.84 69.61 55.99C68.74 41.67 63.72 34.38 63.72 34.38C61.75 33.59 59.21 30.86 53.89 30.45ZM38.18 48.13C38.18 45.96 39.72 44.2 41.62 44.2C43.52 44.2 45.05 45.96 45.05 48.13C45.05 50.3 43.52 52.06 41.62 52.06C39.72 52.06 38.18 50.3 38.18 48.13ZM50.95 48.13C50.95 45.96 52.48 44.2 54.38 44.2C56.28 44.2 57.82 45.96 57.82 48.13C57.82 50.3 56.28 52.06 54.38 52.06C52.48 52.06 50.95 50.3 50.95 48.13Z" id="b1m4Zr0w3X"></path><path d="M8 48C8 18.37 18.37 8 48 8C77.64 8 88 18.37 88 48C88 77.64 77.64 88 48 88C18.37 88 8 77.64 8 48Z" id="a3zNWynO"></path></defs><g><g><use xlink:href="#a65yLvRzZa" opacity="1" fill="#000000" fill-opacity="0"></use><g><use xlink:href="#a65yLvRzZa" opacity="1" fill-opacity="0" stroke="#000000" stroke-width="1" stroke-opacity="0"></use></g></g><g><use xlink:href="#aWOavx9QK" opacity="1" fill="#8c9eff" fill-opacity="1"></use><g><use xlink:href="#aWOavx9QK" opacity="1" fill-opacity="0" stroke="#000000" stroke-width="1" stroke-opacity="0"></use></g></g><g><use xlink:href="#g6EuFyI4Q2" opacity="1" fill="#1a1a1a" fill-opacity="1"></use><g><use xlink:href="#g6EuFyI4Q2" opacity="1" fill-opacity="0" stroke="#000000" stroke-width="1" stroke-opacity="0"></use></g></g><g><use xlink:href="#b1m4Zr0w3X" opacity="1" fill="#ffffff" fill-opacity="1"></use><g><use xlink:href="#b1m4Zr0w3X" opacity="1" fill-opacity="0" stroke="#000000" stroke-width="1" stroke-opacity="0"></use></g></g><g><use xlink:href="#a3zNWynO" opacity="1" fill="#000000" fill-opacity="0"></use><g><use xlink:href="#a3zNWynO" opacity="1" fill-opacity="0" stroke="#000000" stroke-width="1" stroke-opacity="0"></use></g></g></g></svg>