<?xml version="1.0"?>
<!-- Converted with SVG Converter - Version 0.9.5 (Compiled Mon May 30 09:08:51 2011) - Copyright (C) 2011 Nokia -->
<svg xmlns="http://www.w3.org/2000/svg" width="96" version="1.2" height="96" viewBox="0 0 96 96" xmlns:xlink="http://www.w3.org/1999/xlink" baseProfile="tiny" id="ORANGE_BACKGROUNDS" xml:space="preserve">
 <metadata id="metadata3069"/>
 <defs id="defs3067">
  <linearGradient id="linearGradient9650">
   <stop offset="0" style="stop-color:#5952ff;stop-opacity:1" id="stop9652"/>
   <stop offset="0.5" style="stop-color:#7062f6;stop-opacity:1" id="stop9658"/>
   <stop offset="1" style="stop-color:#9662f6;stop-opacity:1" id="stop9654"/>
  </linearGradient>
  <linearGradient id="linearGradient5113">
   <stop offset="0" style="stop-color:#64af2d;stop-opacity:1" id="stop5115"/>
  </linearGradient>
  <linearGradient id="linearGradient5332">
   <stop offset="0" style="stop-color:#78c56d;stop-opacity:1" id="stop5334"/>
  </linearGradient>
  <linearGradient id="linearGradient3799">
   <stop offset="0" style="stop-color:#7886e4;stop-opacity:1" id="stop3801"/>
  </linearGradient>
  <linearGradient id="RED_x2F_ORANGE_5_2_-1" y1="8.0107002" x1="47.9995" y2="87.9897" x2="47.9995" gradientUnits="userSpaceOnUse">
   <stop offset="0" style="stop-color:#ffdb62;stop-opacity:1" id="stop3054-7"/>
   <stop offset="0.1393" style="stop-color:#fad15c;stop-opacity:1" id="stop3056-4"/>
   <stop offset="0.3741" style="stop-color:#edb74d;stop-opacity:1" id="stop3058-0"/>
   <stop offset="0.48480001" style="stop-color:#e6a844;stop-opacity:1" id="stop3060-9"/>
   <stop offset="1" style="stop-color:#c96b25;stop-opacity:1" id="stop3062-4"/>
  </linearGradient>
  <linearGradient gradientTransform="translate(2.000003,-1.988)" id="linearGradient3091" y1="8.0107002" x1="47.9995" y2="87.9897" x2="47.9995" gradientUnits="userSpaceOnUse">
   <stop offset="0" style="stop-color:#ffdb62;stop-opacity:1" id="stop3054-7"/>
   <stop offset="0.1393" style="stop-color:#fad15c;stop-opacity:1" id="stop3056-4"/>
   <stop offset="0.3741" style="stop-color:#edb74d;stop-opacity:1" id="stop3058-0"/>
   <stop offset="0.48480001" style="stop-color:#e6a844;stop-opacity:1" id="stop3060-9"/>
   <stop offset="1" style="stop-color:#c96b25;stop-opacity:1" id="stop3062-4"/>
  </linearGradient>
  <linearGradient gradientTransform="translate(1.5e-6,5e-4)" id="linearGradient3124" y1="8.0107002" x1="47.9995" y2="87.9897" x2="47.9995" gradientUnits="userSpaceOnUse">
   <stop offset="0" style="stop-color:#ffdb62;stop-opacity:1" id="stop3054-7"/>
   <stop offset="0.1393" style="stop-color:#fad15c;stop-opacity:1" id="stop3056-4"/>
   <stop offset="0.3741" style="stop-color:#edb74d;stop-opacity:1" id="stop3058-0"/>
   <stop offset="0.48480001" style="stop-color:#e6a844;stop-opacity:1" id="stop3060-9"/>
   <stop offset="1" style="stop-color:#c96b25;stop-opacity:1" id="stop3062-4"/>
  </linearGradient>
  <linearGradient gradientTransform="translate(1.5e-6,5e-4)" id="linearGradient3124-1" y1="8.0107002" x1="47.9995" y2="87.9897" x2="47.9995" gradientUnits="userSpaceOnUse">
   <stop offset="0" style="stop-color:#ffdb62;stop-opacity:1" id="stop3054-7-4"/>
   <stop offset="0.1393" style="stop-color:#fad15c;stop-opacity:1" id="stop3056-4-0"/>
   <stop offset="0.3741" style="stop-color:#edb74d;stop-opacity:1" id="stop3058-0-9"/>
   <stop offset="0.48480001" style="stop-color:#e6a844;stop-opacity:1" id="stop3060-9-4"/>
   <stop offset="1" style="stop-color:#c96b25;stop-opacity:1" id="stop3062-4-8"/>
  </linearGradient>
  <linearGradient id="RED_x2F_ORANGE_5_2_-1-7" y1="8.0107002" x1="47.9995" y2="87.9897" x2="47.9995" gradientUnits="userSpaceOnUse">
   <stop offset="0" style="stop-color:#ffdb62;stop-opacity:1" id="stop3054-7-4"/>
   <stop offset="0.1393" style="stop-color:#fad15c;stop-opacity:1" id="stop3056-4-0"/>
   <stop offset="0.3741" style="stop-color:#edb74d;stop-opacity:1" id="stop3058-0-9"/>
   <stop offset="0.48480001" style="stop-color:#e6a844;stop-opacity:1" id="stop3060-9-4"/>
   <stop offset="1" style="stop-color:#c96b25;stop-opacity:1" id="stop3062-4-8"/>
  </linearGradient>
  <linearGradient gradientTransform="translate(1.5e-6,5e-4)" id="linearGradient3234" y1="8.0107002" x1="47.9995" y2="87.9897" x2="47.9995" gradientUnits="userSpaceOnUse">
   <stop offset="0" style="stop-color:#ffdb62;stop-opacity:1" id="stop3054-7-4"/>
   <stop offset="0.1393" style="stop-color:#fad15c;stop-opacity:1" id="stop3056-4-0"/>
   <stop offset="0.3741" style="stop-color:#edb74d;stop-opacity:1" id="stop3058-0-9"/>
   <stop offset="0.48480001" style="stop-color:#e6a844;stop-opacity:1" id="stop3060-9-4"/>
   <stop offset="1" style="stop-color:#c96b25;stop-opacity:1" id="stop3062-4-8"/>
  </linearGradient>
  <linearGradient gradientTransform="translate(1.5e-6,5e-4)" id="linearGradient3234-8" y1="8.0107002" x1="47.9995" y2="87.9897" x2="47.9995" gradientUnits="userSpaceOnUse">
   <stop offset="0" style="stop-color:#ffdb62;stop-opacity:1" id="stop3054-7-4-4"/>
   <stop offset="0.1393" style="stop-color:#fad15c;stop-opacity:1" id="stop3056-4-0-5"/>
   <stop offset="0.3741" style="stop-color:#edb74d;stop-opacity:1" id="stop3058-0-9-5"/>
   <stop offset="0.48480001" style="stop-color:#e6a844;stop-opacity:1" id="stop3060-9-4-1"/>
   <stop offset="1" style="stop-color:#c96b25;stop-opacity:1" id="stop3062-4-8-7"/>
  </linearGradient>
  <linearGradient id="RED_x2F_ORANGE_5_2_-1-7-2" y1="8.0107002" x1="47.9995" y2="87.9897" x2="47.9995" gradientUnits="userSpaceOnUse">
   <stop offset="0" style="stop-color:#ffdb62;stop-opacity:1" id="stop3054-7-4-4"/>
   <stop offset="0.1393" style="stop-color:#fad15c;stop-opacity:1" id="stop3056-4-0-5"/>
   <stop offset="0.3741" style="stop-color:#edb74d;stop-opacity:1" id="stop3058-0-9-5"/>
   <stop offset="0.48480001" style="stop-color:#e6a844;stop-opacity:1" id="stop3060-9-4-1"/>
   <stop offset="1" style="stop-color:#c96b25;stop-opacity:1" id="stop3062-4-8-7"/>
  </linearGradient>
  <linearGradient gradientTransform="translate(1.5e-6,5e-4)" id="linearGradient3277" y1="8.0107002" x1="47.9995" y2="87.9897" x2="47.9995" gradientUnits="userSpaceOnUse">
   <stop offset="0" style="stop-color:#ffdb62;stop-opacity:1" id="stop3054-7-4-4"/>
   <stop offset="0.1393" style="stop-color:#fad15c;stop-opacity:1" id="stop3056-4-0-5"/>
   <stop offset="0.3741" style="stop-color:#edb74d;stop-opacity:1" id="stop3058-0-9-5"/>
   <stop offset="0.48480001" style="stop-color:#e6a844;stop-opacity:1" id="stop3060-9-4-1"/>
   <stop offset="1" style="stop-color:#c96b25;stop-opacity:1" id="stop3062-4-8-7"/>
  </linearGradient>
  <linearGradient id="linearGradient3803-1" y1="31.75" x1="-77.5" y2="31.75" x2="-15" gradientUnits="userSpaceOnUse">
   <stop offset="0" style="stop-color:#78d9e4;stop-opacity:1" id="stop3801-4"/>
  </linearGradient>
  <linearGradient id="linearGradient3799-7">
   <stop offset="0" style="stop-color:#78d9e4;stop-opacity:1" id="stop3801-4"/>
  </linearGradient>
  <linearGradient id="linearGradient3819-9" y1="31.75" x1="-77.5" y2="31.75" x2="-15" gradientUnits="userSpaceOnUse">
   <stop offset="0" style="stop-color:#782ee4;stop-opacity:1" id="stop3801-4-8"/>
  </linearGradient>
  <linearGradient id="linearGradient3799-7-4">
   <stop offset="0" style="stop-color:#782ee4;stop-opacity:1" id="stop3801-4-8"/>
  </linearGradient>
  <linearGradient id="linearGradient3850-2" y1="31.75" x1="-77.5" y2="31.75" x2="-15" gradientUnits="userSpaceOnUse">
   <stop offset="0" style="stop-color:#782e38;stop-opacity:1" id="stop3801-4-8-5"/>
  </linearGradient>
  <linearGradient id="linearGradient3799-7-4-4">
   <stop offset="0" style="stop-color:#782e38;stop-opacity:1" id="stop3801-4-8-5"/>
  </linearGradient>
  <linearGradient gradientTransform="translate(1.5e-6,5e-4)" id="linearGradient3277-1" y1="8.0107002" x1="47.9995" y2="87.9897" x2="47.9995" gradientUnits="userSpaceOnUse">
   <stop offset="0" style="stop-color:#ffdb62;stop-opacity:1" id="stop3054-7-4-4-4"/>
   <stop offset="0.1393" style="stop-color:#fad15c;stop-opacity:1" id="stop3056-4-0-5-0"/>
   <stop offset="0.3741" style="stop-color:#edb74d;stop-opacity:1" id="stop3058-0-9-5-9"/>
   <stop offset="0.48480001" style="stop-color:#e6a844;stop-opacity:1" id="stop3060-9-4-1-4"/>
   <stop offset="1" style="stop-color:#c96b25;stop-opacity:1" id="stop3062-4-8-7-8"/>
  </linearGradient>
  <linearGradient id="RED_x2F_ORANGE_5_2_-1-7-2-7" y1="8.0107002" x1="47.9995" y2="87.9897" x2="47.9995" gradientUnits="userSpaceOnUse">
   <stop offset="0" style="stop-color:#ffdb62;stop-opacity:1" id="stop3054-7-4-4-4"/>
   <stop offset="0.1393" style="stop-color:#fad15c;stop-opacity:1" id="stop3056-4-0-5-0"/>
   <stop offset="0.3741" style="stop-color:#edb74d;stop-opacity:1" id="stop3058-0-9-5-9"/>
   <stop offset="0.48480001" style="stop-color:#e6a844;stop-opacity:1" id="stop3060-9-4-1-4"/>
   <stop offset="1" style="stop-color:#c96b25;stop-opacity:1" id="stop3062-4-8-7-8"/>
  </linearGradient>
  <linearGradient gradientTransform="translate(1.5e-6,5e-4)" id="linearGradient4552" y1="8.0107002" x1="47.9995" y2="87.9897" x2="47.9995" gradientUnits="userSpaceOnUse">
   <stop offset="0" style="stop-color:#ffdb62;stop-opacity:1" id="stop3054-7-4-4-4"/>
   <stop offset="0.1393" style="stop-color:#fad15c;stop-opacity:1" id="stop3056-4-0-5-0"/>
   <stop offset="0.3741" style="stop-color:#edb74d;stop-opacity:1" id="stop3058-0-9-5-9"/>
   <stop offset="0.48480001" style="stop-color:#e6a844;stop-opacity:1" id="stop3060-9-4-1-4"/>
   <stop offset="1" style="stop-color:#c96b25;stop-opacity:1" id="stop3062-4-8-7-8"/>
  </linearGradient>
  <linearGradient gradientTransform="translate(1.5e-6,5e-4)" id="linearGradient4552-2" y1="8.0107002" x1="47.9995" y2="87.9897" x2="47.9995" gradientUnits="userSpaceOnUse">
   <stop offset="0" style="stop-color:#ffdb62;stop-opacity:1" id="stop3054-7-4-4-4-5"/>
   <stop offset="0.1393" style="stop-color:#fad15c;stop-opacity:1" id="stop3056-4-0-5-0-5"/>
   <stop offset="0.3741" style="stop-color:#edb74d;stop-opacity:1" id="stop3058-0-9-5-9-1"/>
   <stop offset="0.48480001" style="stop-color:#e6a844;stop-opacity:1" id="stop3060-9-4-1-4-7"/>
   <stop offset="1" style="stop-color:#c96b25;stop-opacity:1" id="stop3062-4-8-7-8-1"/>
  </linearGradient>
  <linearGradient id="RED_x2F_ORANGE_5_2_-1-7-2-7-4" y1="8.0107002" x1="47.9995" y2="87.9897" x2="47.9995" gradientUnits="userSpaceOnUse">
   <stop offset="0" style="stop-color:#ffdb62;stop-opacity:1" id="stop3054-7-4-4-4-5"/>
   <stop offset="0.1393" style="stop-color:#fad15c;stop-opacity:1" id="stop3056-4-0-5-0-5"/>
   <stop offset="0.3741" style="stop-color:#edb74d;stop-opacity:1" id="stop3058-0-9-5-9-1"/>
   <stop offset="0.48480001" style="stop-color:#e6a844;stop-opacity:1" id="stop3060-9-4-1-4-7"/>
   <stop offset="1" style="stop-color:#c96b25;stop-opacity:1" id="stop3062-4-8-7-8-1"/>
  </linearGradient>
  <linearGradient id="RED_x2F_ORANGE_5_2_-8" y1="8.0107002" x1="47.9995" y2="87.9897" x2="47.9995" gradientUnits="userSpaceOnUse">
   <stop offset="0" style="stop-color:#ffdb62;stop-opacity:1" id="stop6363"/>
   <stop offset="0.1393" style="stop-color:#fad15c;stop-opacity:1" id="stop6365"/>
   <stop offset="0.3741" style="stop-color:#edb74d;stop-opacity:1" id="stop6367"/>
   <stop offset="0.48480001" style="stop-color:#e6a844;stop-opacity:1" id="stop6369"/>
   <stop offset="1" style="stop-color:#c96b25;stop-opacity:1" id="stop6371"/>
  </linearGradient>
  <linearGradient id="HIGHLIGHTS_RO5_1_" y1="8.2559004" x1="47.9995" y2="87.504303" x2="47.9995" gradientUnits="userSpaceOnUse">
   <stop offset="0" style="stop-color:#ffffff;stop-opacity:1" id="stop6375"/>
   <stop offset="0.0958" style="stop-color:#fdf8f5;stop-opacity:1" id="stop6377"/>
   <stop offset="0.2579" style="stop-color:#f6e6db;stop-opacity:1" id="stop6379"/>
   <stop offset="0.4666" style="stop-color:#ebc9af;stop-opacity:1" id="stop6381"/>
   <stop offset="0.71359998" style="stop-color:#dca073;stop-opacity:1" id="stop6383"/>
   <stop offset="0.99040002" style="stop-color:#ca6d28;stop-opacity:1" id="stop6385"/>
   <stop offset="1" style="stop-color:#c96b25;stop-opacity:1" id="stop6387"/>
  </linearGradient>
  <linearGradient id="linearGradient5108" xlink:href="#VIOLET_1_3_" y1="9.7622004" x1="47.9995" y2="89.741203" x2="47.9995" gradientUnits="userSpaceOnUse"/>
  <linearGradient gradientTransform="matrix(0.14388489,0,0,0.14184397,113.31386,2.588652)" id="linearGradient5117" y1="-35.875" x1="-54.5" y2="-35.875" x2="-19.75" gradientUnits="userSpaceOnUse">
   <stop offset="0" style="stop-color:#64af2d;stop-opacity:1" id="stop5115"/>
  </linearGradient>
  <linearGradient gradientTransform="matrix(0.14388489,0,0,0.14184397,-12.158274,-16.411348)" id="linearGradient5117-3" y1="-35.875" x1="-54.5" y2="-35.875" x2="-19.75" gradientUnits="userSpaceOnUse">
   <stop offset="0" style="stop-color:#449311;stop-opacity:1" id="stop5115-9"/>
  </linearGradient>
  <linearGradient id="linearGradient5113-1">
   <stop offset="0" style="stop-color:#449311;stop-opacity:1" id="stop5115-9"/>
  </linearGradient>
  <linearGradient gradientTransform="matrix(0.14388489,0,0,0.14184397,113.31386,7.588652)" id="linearGradient5133" y1="-35.875" x1="-54.5" y2="-35.875" x2="-19.75" gradientUnits="userSpaceOnUse">
   <stop offset="0" style="stop-color:#449311;stop-opacity:1" id="stop5115-9"/>
  </linearGradient>
  <linearGradient gradientTransform="matrix(0.14388489,0,0,0.14184397,-7.158274,-16.411348)" id="linearGradient5133-6" y1="-35.875" x1="-54.5" y2="-35.875" x2="-19.75" gradientUnits="userSpaceOnUse">
   <stop offset="0" style="stop-color:#128406;stop-opacity:1" id="stop5115-9-0"/>
  </linearGradient>
  <linearGradient id="linearGradient5113-1-5">
   <stop offset="0" style="stop-color:#128406;stop-opacity:1" id="stop5115-9-0"/>
  </linearGradient>
  <linearGradient gradientTransform="matrix(0.14388489,0,0,0.14184397,113.31386,12.588652)" id="linearGradient5164" y1="-35.875" x1="-54.5" y2="-35.875" x2="-19.75" gradientUnits="userSpaceOnUse">
   <stop offset="0" style="stop-color:#128406;stop-opacity:1" id="stop5115-9-0"/>
  </linearGradient>
  <linearGradient gradientTransform="matrix(0.14388489,0,0,0.14184397,-2.158274,-16.411348)" id="linearGradient5164-8" y1="-35.875" x1="-54.5" y2="-35.875" x2="-19.75" gradientUnits="userSpaceOnUse">
   <stop offset="0" style="stop-color:#009351;stop-opacity:1" id="stop5115-9-0-0"/>
  </linearGradient>
  <linearGradient id="linearGradient5113-1-5-6">
   <stop offset="0" style="stop-color:#009351;stop-opacity:1" id="stop5115-9-0-0"/>
  </linearGradient>
  <linearGradient gradientTransform="matrix(0.14388489,0,0,0.14184397,113.31386,17.588652)" id="linearGradient5195" y1="-35.875" x1="-54.5" y2="-35.875" x2="-19.75" gradientUnits="userSpaceOnUse">
   <stop offset="0" style="stop-color:#009351;stop-opacity:1" id="stop5115-9-0-0"/>
  </linearGradient>
  <linearGradient gradientTransform="matrix(0.14388489,0,0,0.14184397,113.31386,37.588652)" id="linearGradient5195-4" y1="-35.875" x1="-54.5" y2="-35.875" x2="-19.75" gradientUnits="userSpaceOnUse">
   <stop offset="0" style="stop-color:#1b34b2;stop-opacity:1" id="stop5115-9-0-0-6"/>
  </linearGradient>
  <linearGradient id="linearGradient5113-1-5-6-8">
   <stop offset="0" style="stop-color:#1b34b2;stop-opacity:1" id="stop5115-9-0-0-6"/>
  </linearGradient>
  <linearGradient gradientTransform="matrix(0.14388489,0,0,0.14184397,113.31386,32.588652)" id="linearGradient5164-5" y1="-35.875" x1="-54.5" y2="-35.875" x2="-19.75" gradientUnits="userSpaceOnUse">
   <stop offset="0" style="stop-color:#0066a8;stop-opacity:1" id="stop5115-9-0-9"/>
  </linearGradient>
  <linearGradient id="linearGradient5113-1-5-0">
   <stop offset="0" style="stop-color:#0066a8;stop-opacity:1" id="stop5115-9-0-9"/>
  </linearGradient>
  <linearGradient gradientTransform="matrix(0.14388489,0,0,0.14184397,113.31386,27.588652)" id="linearGradient5133-0" y1="-35.875" x1="-54.5" y2="-35.875" x2="-19.75" gradientUnits="userSpaceOnUse">
   <stop offset="0" style="stop-color:#0082b6;stop-opacity:1" id="stop5115-9-6"/>
  </linearGradient>
  <linearGradient id="linearGradient5113-1-0">
   <stop offset="0" style="stop-color:#0082b6;stop-opacity:1" id="stop5115-9-6"/>
  </linearGradient>
  <linearGradient gradientTransform="matrix(0.14388489,0,0,0.14184397,-12.158274,-16.411348)" id="linearGradient5117-1" y1="-35.875" x1="-54.5" y2="-35.875" x2="-19.75" gradientUnits="userSpaceOnUse">
   <stop offset="0" style="stop-color:#0d9758;stop-opacity:1" id="stop5115-8"/>
  </linearGradient>
  <linearGradient id="linearGradient5113-3">
   <stop offset="0" style="stop-color:#0d9758;stop-opacity:1" id="stop5115-8"/>
  </linearGradient>
  <linearGradient gradientTransform="matrix(0.14388489,0,0,0.14184397,113.31386,22.588652)" id="linearGradient5238" y1="-35.875" x1="-54.5" y2="-35.875" x2="-19.75" gradientUnits="userSpaceOnUse">
   <stop offset="0" style="stop-color:#0d9758;stop-opacity:1" id="stop5115-8"/>
  </linearGradient>
  <linearGradient gradientTransform="matrix(0.14388489,0,0,0.14184397,-12.158274,-11.411348)" id="linearGradient5238-6" y1="-35.875" x1="-54.5" y2="-35.875" x2="-19.75" gradientUnits="userSpaceOnUse">
   <stop offset="0" style="stop-color:#2c00a5;stop-opacity:1" id="stop5115-8-6"/>
  </linearGradient>
  <linearGradient id="linearGradient5113-3-0">
   <stop offset="0" style="stop-color:#2c00a5;stop-opacity:1" id="stop5115-8-6"/>
  </linearGradient>
  <linearGradient gradientTransform="matrix(0.14388489,0,0,0.14184397,113.31386,47.588652)" id="linearGradient5133-0-6" y1="-35.875" x1="-54.5" y2="-35.875" x2="-19.75" gradientUnits="userSpaceOnUse">
   <stop offset="0" style="stop-color:#62226a;stop-opacity:1" id="stop5115-9-6-8"/>
  </linearGradient>
  <linearGradient id="linearGradient5113-1-0-1">
   <stop offset="0" style="stop-color:#62226a;stop-opacity:1" id="stop5115-9-6-8"/>
  </linearGradient>
  <linearGradient gradientTransform="matrix(0.14388489,0,0,0.14184397,113.31386,52.588652)" id="linearGradient5164-5-4" y1="-35.875" x1="-54.5" y2="-35.875" x2="-19.75" gradientUnits="userSpaceOnUse">
   <stop offset="0" style="stop-color:#e50c98;stop-opacity:1" id="stop5115-9-0-9-6"/>
  </linearGradient>
  <linearGradient id="linearGradient5113-1-5-0-9">
   <stop offset="0" style="stop-color:#e50c98;stop-opacity:1" id="stop5115-9-0-9-6"/>
  </linearGradient>
  <linearGradient gradientTransform="matrix(0.14388489,0,0,0.14184397,113.31386,57.588652)" id="linearGradient5195-4-3" y1="-35.875" x1="-54.5" y2="-35.875" x2="-19.75" gradientUnits="userSpaceOnUse">
   <stop offset="0" style="stop-color:#ec297b;stop-opacity:1" id="stop5115-9-0-0-6-8"/>
  </linearGradient>
  <linearGradient id="linearGradient5113-1-5-6-8-7">
   <stop offset="0" style="stop-color:#ec297b;stop-opacity:1" id="stop5115-9-0-0-6-8"/>
  </linearGradient>
  <linearGradient gradientTransform="matrix(0.14388489,0,0,0.14184397,113.31386,42.588652)" id="linearGradient5305" y1="-35.875" x1="-54.5" y2="-35.875" x2="-19.75" gradientUnits="userSpaceOnUse">
   <stop offset="0" style="stop-color:#2c00a5;stop-opacity:1" id="stop5115-8-6"/>
  </linearGradient>
  <linearGradient gradientTransform="matrix(0.14388489,0,0,0.14184397,113.31386,77.588652)" id="linearGradient5195-4-3-3" y1="-35.875" x1="-54.5" y2="-35.875" x2="-19.75" gradientUnits="userSpaceOnUse">
   <stop offset="0" style="stop-color:#ff7a0d;stop-opacity:1" id="stop5115-9-0-0-6-8-9"/>
  </linearGradient>
  <linearGradient id="linearGradient5113-1-5-6-8-7-5">
   <stop offset="0" style="stop-color:#ff7a0d;stop-opacity:1" id="stop5115-9-0-0-6-8-9"/>
  </linearGradient>
  <linearGradient gradientTransform="matrix(0.14388489,0,0,0.14184397,113.31386,72.588652)" id="linearGradient5164-5-4-8" y1="-35.875" x1="-54.5" y2="-35.875" x2="-19.75" gradientUnits="userSpaceOnUse">
   <stop offset="0" style="stop-color:#ff5b00;stop-opacity:1" id="stop5115-9-0-9-6-0"/>
  </linearGradient>
  <linearGradient id="linearGradient5113-1-5-0-9-4">
   <stop offset="0" style="stop-color:#ff5b00;stop-opacity:1" id="stop5115-9-0-9-6-0"/>
  </linearGradient>
  <linearGradient gradientTransform="matrix(0.14388489,0,0,0.14184397,113.31386,67.588652)" id="linearGradient5133-0-6-7" y1="-35.875" x1="-54.5" y2="-35.875" x2="-19.75" gradientUnits="userSpaceOnUse">
   <stop offset="0" style="stop-color:#f74000;stop-opacity:1" id="stop5115-9-6-8-3"/>
  </linearGradient>
  <linearGradient id="linearGradient5113-1-0-1-6">
   <stop offset="0" style="stop-color:#f74000;stop-opacity:1" id="stop5115-9-6-8-3"/>
  </linearGradient>
  <linearGradient gradientTransform="matrix(0.14388489,0,0,0.14184397,-12.158274,-6.411348)" id="linearGradient5305-6" y1="-35.875" x1="-54.5" y2="-35.875" x2="-19.75" gradientUnits="userSpaceOnUse">
   <stop offset="0" style="stop-color:#e21429;stop-opacity:1" id="stop5115-8-6-5"/>
  </linearGradient>
  <linearGradient id="linearGradient5113-3-0-1">
   <stop offset="0" style="stop-color:#e21429;stop-opacity:1" id="stop5115-8-6-5"/>
  </linearGradient>
  <linearGradient gradientTransform="matrix(0.14388489,0,0,0.14184397,113.31386,62.588652)" id="linearGradient5372" y1="-35.875" x1="-54.5" y2="-35.875" x2="-19.75" gradientUnits="userSpaceOnUse">
   <stop offset="0" style="stop-color:#e21429;stop-opacity:1" id="stop5115-8-6-5"/>
  </linearGradient>
  <linearGradient gradientTransform="matrix(0.14388489,0,0,0.14184397,113.31386,97.588652)" id="linearGradient5195-4-3-3-7" y1="-35.875" x1="-54.5" y2="-35.875" x2="-19.75" gradientUnits="userSpaceOnUse">
   <stop offset="0" style="stop-color:#e0e0e0;stop-opacity:1" id="stop5115-9-0-0-6-8-9-7"/>
  </linearGradient>
  <linearGradient id="linearGradient5113-1-5-6-8-7-5-3">
   <stop offset="0" style="stop-color:#e0e0e0;stop-opacity:1" id="stop5115-9-0-0-6-8-9-7"/>
  </linearGradient>
  <linearGradient gradientTransform="matrix(0.14388489,0,0,0.14184397,113.31386,92.588652)" id="linearGradient5164-5-4-8-2" y1="-35.875" x1="-54.5" y2="-35.875" x2="-19.75" gradientUnits="userSpaceOnUse">
   <stop offset="0" style="stop-color:#e8e8e8;stop-opacity:1" id="stop5115-9-0-9-6-0-0"/>
  </linearGradient>
  <linearGradient id="linearGradient5113-1-5-0-9-4-6">
   <stop offset="0" style="stop-color:#e8e8e8;stop-opacity:1" id="stop5115-9-0-9-6-0-0"/>
  </linearGradient>
  <linearGradient gradientTransform="matrix(0.14388489,0,0,0.14184397,113.31386,87.588652)" id="linearGradient5133-0-6-7-1" y1="-35.875" x1="-54.5" y2="-35.875" x2="-19.75" gradientUnits="userSpaceOnUse">
   <stop offset="0" style="stop-color:#f7d303;stop-opacity:1" id="stop5115-9-6-8-3-5"/>
  </linearGradient>
  <linearGradient id="linearGradient5113-1-0-1-6-6">
   <stop offset="0" style="stop-color:#f7d303;stop-opacity:1" id="stop5115-9-6-8-3-5"/>
  </linearGradient>
  <linearGradient gradientTransform="matrix(0.14388489,0,0,0.14184397,-12.158274,-1.411348)" id="linearGradient5372-7" y1="-35.875" x1="-54.5" y2="-35.875" x2="-19.75" gradientUnits="userSpaceOnUse">
   <stop offset="0" style="stop-color:#ffa300;stop-opacity:1" id="stop5115-8-6-5-4"/>
  </linearGradient>
  <linearGradient id="linearGradient5113-3-0-1-5">
   <stop offset="0" style="stop-color:#ffa300;stop-opacity:1" id="stop5115-8-6-5-4"/>
  </linearGradient>
  <linearGradient gradientTransform="matrix(0.14388489,0,0,0.14184397,113.31386,82.588652)" id="linearGradient5439" y1="-35.875" x1="-54.5" y2="-35.875" x2="-19.75" gradientUnits="userSpaceOnUse">
   <stop offset="0" style="stop-color:#ffa300;stop-opacity:1" id="stop5115-8-6-5-4"/>
  </linearGradient>
  <linearGradient gradientTransform="matrix(0.14388489,0,0,0.14184397,-12.158274,8.588652)" id="linearGradient5164-5-4-8-2-1" y1="-35.875" x1="-54.5" y2="-35.875" x2="-19.75" gradientUnits="userSpaceOnUse">
   <stop offset="0" style="stop-color:#d3d3d3;stop-opacity:1" id="stop5115-9-0-9-6-0-0-6"/>
  </linearGradient>
  <linearGradient id="linearGradient5113-1-5-0-9-4-6-4">
   <stop offset="0" style="stop-color:#d3d3d3;stop-opacity:1" id="stop5115-9-0-9-6-0-0-6"/>
  </linearGradient>
  <linearGradient gradientTransform="matrix(0.14388489,0,0,0.14184397,113.31386,107.58865)" id="linearGradient5195-4-3-3-7-0" y1="-35.875" x1="-54.5" y2="-35.875" x2="-19.75" gradientUnits="userSpaceOnUse">
   <stop offset="0" style="stop-color:#cecece;stop-opacity:1" id="stop5115-9-0-0-6-8-9-7-1"/>
  </linearGradient>
  <linearGradient id="linearGradient5113-1-5-6-8-7-5-3-7">
   <stop offset="0" style="stop-color:#cecece;stop-opacity:1" id="stop5115-9-0-0-6-8-9-7-1"/>
  </linearGradient>
  <linearGradient gradientTransform="matrix(0.14388489,0,0,0.14184397,113.31386,102.58865)" id="linearGradient5498" y1="-35.875" x1="-54.5" y2="-35.875" x2="-19.75" gradientUnits="userSpaceOnUse">
   <stop offset="0" style="stop-color:#d3d3d3;stop-opacity:1" id="stop5115-9-0-9-6-0-0-6"/>
  </linearGradient>
  <linearGradient id="SVGID_1_" y1="39.117199" x1="48.452099" y2="70.455498" x2="48.452099" gradientUnits="userSpaceOnUse">
   <stop offset="0.32319999" style="stop-color:#fafcef;stop-opacity:1" id="stop4392-1"/>
   <stop offset="1" style="stop-color:#d0cbc5;stop-opacity:1" id="stop4394-7"/>
  </linearGradient>
  <linearGradient gradientTransform="translate(68.546831,-90.188689)" id="linearGradient4418" y1="39.117199" x1="48.452099" y2="70.455498" x2="48.452099" gradientUnits="userSpaceOnUse">
   <stop offset="0.32319999" style="stop-color:#fafcef;stop-opacity:1" id="stop4392-1"/>
   <stop offset="1" style="stop-color:#d0cbc5;stop-opacity:1" id="stop4394-7"/>
  </linearGradient>
  <linearGradient id="HIGHLIGHT_RIM_1_" y1="0" x1="47.9995" y2="144.6673" x2="47.9995" gradientUnits="userSpaceOnUse">
   <stop offset="0" style="stop-color:#ffffff;stop-opacity:1" id="stop4495"/>
   <stop offset="1" style="stop-color:#000000;stop-opacity:1" id="stop4497"/>
  </linearGradient>
  <linearGradient id="linearGradient4559" y1="0" x1="47.9995" y2="144.6673" x2="47.9995" gradientUnits="userSpaceOnUse">
   <stop offset="0" style="stop-color:#ffffff;stop-opacity:1" id="stop4561"/>
   <stop offset="1" style="stop-color:#000000;stop-opacity:1" id="stop4563"/>
  </linearGradient>
  <linearGradient id="linearGradient3263" y1="0" x1="47.9995" y2="144.6673" x2="47.9995" gradientUnits="userSpaceOnUse">
   <stop offset="0" style="stop-color:#ffffff;stop-opacity:1" id="stop4495"/>
   <stop offset="1" style="stop-color:#000000;stop-opacity:1" id="stop4497"/>
  </linearGradient>
  <linearGradient gradientTransform="matrix(-0.00983996,-0.99995159,0.99995159,-0.00983996,0.474643,96.469994)" id="linearGradient9656" y1="48" x1="3.0203252" y2="48" x2="92.979675" gradientUnits="userSpaceOnUse">
   <stop offset="0" style="stop-color:#5952ff;stop-opacity:1" id="stop9652"/>
   <stop offset="0.5" style="stop-color:#7062f6;stop-opacity:1" id="stop9658"/>
   <stop offset="1" style="stop-color:#9662f6;stop-opacity:1" id="stop9654"/>
  </linearGradient>
  <linearGradient gradientTransform="matrix(-0.00983996,-0.99995159,0.99995159,-0.00983996,0.474643,96.501244)" id="linearGradient9671" y1="48" x1="3.0203252" y2="48" x2="92.979675" gradientUnits="userSpaceOnUse">
   <stop offset="0" style="stop-color:#5952ff;stop-opacity:1" id="stop9652"/>
   <stop offset="0.5" style="stop-color:#7062f6;stop-opacity:1" id="stop9658"/>
   <stop offset="1" style="stop-color:#9662f6;stop-opacity:1" id="stop9654"/>
  </linearGradient>
 </defs>
 <linearGradient id="RED_x2F_ORANGE_5_2_" y1="8.0107002" x1="47.9995" y2="87.9897" x2="47.9995" gradientUnits="userSpaceOnUse">
  <stop offset="0" style="stop-color:#ffdb62;stop-opacity:1" id="stop3054"/>
  <stop offset="0.1393" style="stop-color:#fad15c;stop-opacity:1" id="stop3056"/>
  <stop offset="0.3741" style="stop-color:#edb74d;stop-opacity:1" id="stop3058"/>
  <stop offset="0.48480001" style="stop-color:#e6a844;stop-opacity:1" id="stop3060"/>
  <stop offset="1" style="stop-color:#c96b25;stop-opacity:1" id="stop3062"/>
 </linearGradient>
 <g style="display:inline" id="layer5">
  <rect width="96" x="0" y="0" height="96" style="fill:#000000;fill-opacity:0;stroke:none;display:inline" id="rect3119"/>
 </g>
 <g style="display:inline" id="layer4">
  <path style="opacity:0.4" id="SHADOW" d="m 88.023,49 c 0,29.633 -10.364,40 -40,40 -29.635,0 -40,-10.367 -40,-40 0,-29.634 10.366,-40 40,-40 29.636,0 40,10.365 40,40 z"/>
 </g>
 <g style="display:inline" id="layer7">
  <path style="fill:url(#linearGradient9671);fill-opacity:1;display:inline" id="rect7995-1" d="M 48,8 C 18.365,8 8,18.366 8,48 8,77.633 18.365,88 48,88 77.637,88 88,77.632 88,48 88,18.365 77.637,8 48,8 z"/>
 </g>
 <g style="display:inline" id="layer2">
  <g id="g9664" transform="matrix(1.0486923,0,0,1.0596883,-2.3372305,-1.9045052)">
   <g style="fill:#534eb0;fill-opacity:1;display:inline" id="g6584" transform="matrix(0.86259017,0,0,0.82815417,17.378049,25.250145)">
    <path style="fill:#534eb0;fill-opacity:1" id="path6586" d="M 60.1045,4.8978 C 55.5792,2.8214 50.7265,1.2916 45.6527,0.41542 45.5603,0.39851 45.468,0.440769 45.4204,0.525289 44.7963,1.6353 44.105,3.0834 43.6209,4.2216 38.1637,3.4046 32.7345,3.4046 27.3892,4.2216 26.905,3.0581 26.1886,1.6353 25.5617,0.525289 25.5141,0.443589 25.4218,0.40133 25.3294,0.41542 20.2584,1.2888 15.4057,2.8186 10.8776,4.8978 10.8384,4.9147 10.8048,4.9429 10.7825,4.9795 1.57795,18.7309 -0.943561,32.1443 0.293408,45.3914 c 0.005597,0.0648 0.041978,0.1268 0.092353,0.1662 6.072899,4.4598 11.955539,7.1673 17.728939,8.9619 0.0924,0.0282 0.1903,-0.0056 0.2491,-0.0817 1.3657,-1.865 2.5831,-3.8315 3.6269,-5.8995 0.0616,-0.1211 0.0028,-0.2648 -0.1231,-0.3127 -1.931,-0.7325 -3.7697,-1.6256 -5.5384,-2.6398 -0.1399,-0.0817 -0.1511,-0.2818 -0.0224,-0.3776 0.3722,-0.2789 0.7445,-0.5691 1.0999,-0.8621 0.0643,-0.0535 0.1539,-0.0648 0.2295,-0.031 11.6196,5.3051 24.1992,5.3051 35.6817,0 0.0756,-0.0366 0.1652,-0.0253 0.2323,0.0282 0.3555,0.293 0.7277,0.586 1.1027,0.8649 0.1287,0.0958 0.1203,0.2959 -0.0196,0.3776 -1.7687,1.0339 -3.6074,1.9073 -5.5412,2.637 -0.1259,0.0479 -0.1819,0.1944 -0.1203,0.3155 1.0662,2.0651 2.2836,4.0316 3.6241,5.8967 0.056,0.0789 0.1567,0.1127 0.2491,0.0845 5.8014,-1.7946 11.684,-4.5021 17.7569,-8.9619 0.0532,-0.0394 0.0868,-0.0986 0.0924,-0.1634 C 72.1747,30.0791 68.2147,16.7757 60.1968,4.9823 60.1772,4.9429 60.1437,4.9147 60.1045,4.8978 z M 23.7259,37.3253 c -3.4983,0 -6.3808,-3.2117 -6.3808,-7.156 0,-3.9443 2.8266,-7.156 6.3808,-7.156 3.5821,0 6.4367,3.2399 6.3807,7.156 0,3.9443 -2.8266,7.156 -6.3807,7.156 z m 23.5919,0 c -3.4982,0 -6.3807,-3.2117 -6.3807,-7.156 0,-3.9443 2.8265,-7.156 6.3807,-7.156 3.5822,0 6.4367,3.2399 6.3808,7.156 0,3.9443 -2.7986,7.156 -6.3808,7.156 z"/>
   </g>
   <g style="display:inline" id="g8872" transform="matrix(0.86259017,0,0,0.82815417,17.378049,23.437286)">
    <path style="fill:#ffffff" id="path8874" d="M 60.1045,4.8978 C 55.5792,2.8214 50.7265,1.2916 45.6527,0.41542 45.5603,0.39851 45.468,0.440769 45.4204,0.525289 44.7963,1.6353 44.105,3.0834 43.6209,4.2216 38.1637,3.4046 32.7345,3.4046 27.3892,4.2216 26.905,3.0581 26.1886,1.6353 25.5617,0.525289 25.5141,0.443589 25.4218,0.40133 25.3294,0.41542 20.2584,1.2888 15.4057,2.8186 10.8776,4.8978 10.8384,4.9147 10.8048,4.9429 10.7825,4.9795 1.57795,18.7309 -0.943561,32.1443 0.293408,45.3914 c 0.005597,0.0648 0.041978,0.1268 0.092353,0.1662 6.072899,4.4598 11.955539,7.1673 17.728939,8.9619 0.0924,0.0282 0.1903,-0.0056 0.2491,-0.0817 1.3657,-1.865 2.5831,-3.8315 3.6269,-5.8995 0.0616,-0.1211 0.0028,-0.2648 -0.1231,-0.3127 -1.931,-0.7325 -3.7697,-1.6256 -5.5384,-2.6398 -0.1399,-0.0817 -0.1511,-0.2818 -0.0224,-0.3776 0.3722,-0.2789 0.7445,-0.5691 1.0999,-0.8621 0.0643,-0.0535 0.1539,-0.0648 0.2295,-0.031 11.6196,5.3051 24.1992,5.3051 35.6817,0 0.0756,-0.0366 0.1652,-0.0253 0.2323,0.0282 0.3555,0.293 0.7277,0.586 1.1027,0.8649 0.1287,0.0958 0.1203,0.2959 -0.0196,0.3776 -1.7687,1.0339 -3.6074,1.9073 -5.5412,2.637 -0.1259,0.0479 -0.1819,0.1944 -0.1203,0.3155 1.0662,2.0651 2.2836,4.0316 3.6241,5.8967 0.056,0.0789 0.1567,0.1127 0.2491,0.0845 5.8014,-1.7946 11.684,-4.5021 17.7569,-8.9619 0.0532,-0.0394 0.0868,-0.0986 0.0924,-0.1634 C 72.1747,30.0791 68.2147,16.7757 60.1968,4.9823 60.1772,4.9429 60.1437,4.9147 60.1045,4.8978 z M 23.7259,37.3253 c -3.4983,0 -6.3808,-3.2117 -6.3808,-7.156 0,-3.9443 2.8266,-7.156 6.3808,-7.156 3.5821,0 6.4367,3.2399 6.3807,7.156 0,3.9443 -2.8266,7.156 -6.3807,7.156 z m 23.5919,0 c -3.4982,0 -6.3807,-3.2117 -6.3807,-7.156 0,-3.9443 2.8265,-7.156 6.3807,-7.156 3.5822,0 6.4367,3.2399 6.3808,7.156 0,3.9443 -2.7986,7.156 -6.3808,7.156 z"/>
   </g>
  </g>
 </g>
 <g style="display:inline" id="layer3">
  <path style="fill:url(#linearGradient3263);fill-opacity:0.25" id="HIGHLIGHT_RIM" d="m 48,7.979 c -29.635,0 -40,10.365 -40,40 0,29.633 10.365,40 40,40 29.637,0 40,-10.367 40,-40 0,-29.635 -10.363,-40 -40,-40 z m 0,79.023 C 18.841,87.002 9,77.154 9,47.978 9,18.803 18.841,8.956 48,8.956 c 29.158,0 39,9.847 39,39.022 0,29.176 -9.842,39.024 -39,39.024 z"/>
  <path style="fill:#ffffff;fill-opacity:0.05;display:none" id="SQUIRCLE" d="m 48,87.979 c -29.635,0 -40,-10.367 -40,-40 0,-29.634 10.365,-40 40,-40 29.637,0 40,10.365 40,40 0,29.632 -10.363,40 -40,40 z"/>
  <path style="opacity:0.02000002" id="path4502" d="M 9.478,64.25 C 13.244,81.519 24.624,87.979 48,87.979 c 23.378,0 34.756,-6.46 38.522,-23.729 H 9.478 z"/>
  <path style="opacity:0.02000002" id="path4504" d="M 10.242,67.25 C 14.659,82.271 26.031,87.979 48,87.979 c 21.971,0 33.342,-5.708 37.758,-20.729 H 10.242 z"/>
  <path style="opacity:0.02000002" id="path4506" d="M 11.258,70.25 C 16.284,83.041 27.555,87.979 48,87.979 c 20.446,0 31.717,-4.938 36.742,-17.729 H 11.258 z"/>
  <path style="opacity:0.02000002" id="path4508" d="M 12.636,73.25 C 18.211,83.815 29.241,87.979 48,87.979 c 18.76,0 29.79,-4.163 35.365,-14.729 H 12.636 z"/>
  <path style="opacity:0.02000002" id="path4510" d="M 13.797,75.25 C 19.685,84.348 30.47,87.979 48,87.979 c 17.531,0 28.316,-3.631 34.203,-12.729 H 13.797 z"/>
  <path style="opacity:0.02000002" id="path4512" d="m 15.255,77.25 c 6.141,7.628 16.566,10.729 32.745,10.729 16.18,0 26.604,-3.101 32.745,-10.729 h -65.49 z"/>
  <path style="fill-opacity:0.02000002" id="path4514" d="m 17.059,79.25 c 6.305,6.177 16.254,8.729 30.941,8.729 14.688,0 24.638,-2.552 30.942,-8.729 H 17.059 z"/>
  <path style="opacity:0.01000001;fill:#ffffff" id="path4517" d="m 48,8.979 c -29.635,0 -40,10.365 -40,40 0,2.888 0.102,5.588 0.307,8.119 l 0.219,0.02 h 78.958 l 0.21,-0.019 c 0.205,-2.531 0.307,-5.23 0.307,-8.12 C 88,19.344 77.637,8.979 48,8.979 z"/>
  <path style="opacity:0.01000001;fill:#ffffff" id="path4519" d="m 48,7.979 c -29.635,0 -40,10.365 -40,40 0,1.051 0.017,2.073 0.043,3.077 l 0.701,0.062 H 87.26 l 0.697,-0.063 C 87.983,50.051 88,49.029 88,47.978 88,18.344 77.637,7.979 48,7.979 z"/>
  <path style="opacity:0.01000001;fill:#ffffff" id="path4521" d="m 8.965,46.116 h 78.072 l 0.941,-0.084 C 87.521,17.897 76.975,7.979 48,7.979 19.027,7.979 8.479,17.898 8.022,46.033 l 0.943,0.083 z"/>
  <path style="opacity:0.01000001;fill:#ffffff" id="path4523" d="M 9.186,41.116 H 86.814 L 87.775,41.03 C 86.147,16.713 75.187,7.979 48,7.979 20.815,7.979 9.853,16.714 8.225,41.032 l 0.961,0.084 z"/>
  <path style="opacity:0.01000001;fill:#ffffff" id="path4525" d="m 9.186,37.116 h 77.628 c 0.201,0 0.397,-0.036 0.594,-0.066 C 84.854,15.753 73.648,7.979 48,7.979 c -25.646,0 -36.854,7.774 -39.408,29.072 0.197,0.029 0.392,0.065 0.594,0.065 z"/>
  <path style="opacity:0.01000001;fill:#ffffff" id="path4527" d="m 48,7.979 c -24.004,0 -35.363,6.805 -38.814,25.138 H 86.814 C 83.363,14.783 72.006,7.979 48,7.979 z"/>
  <path style="opacity:0.01000001;fill:#ffffff" id="path4529" d="m 84.074,29.67 1.6,-0.376 c 0.083,-0.02 0.158,-0.058 0.239,-0.084 C 81.605,13.805 70.22,7.979 48,7.979 c -22.218,0 -33.604,5.827 -37.913,21.231 0.081,0.026 0.156,0.064 0.239,0.084 l 1.599,0.376 c 0.226,0.053 0.456,0.08 0.688,0.08 h 70.773 c 0.232,0 0.463,-0.027 0.688,-0.08 z"/>
  <path style="opacity:0.01000001;fill:#ffffff" id="path4531" d="m 12.613,26.75 h 70.773 l 1.6,-0.376 C 80.091,13.093 68.794,7.979 48,7.979 c -20.792,0 -32.09,5.115 -36.986,18.395 l 1.599,0.376 z"/>
  <path style="opacity:0.01000001;fill:#ffffff" id="path4533" d="m 12.613,24.75 h 70.773 c 0.305,0 0.595,-0.081 0.86,-0.208 C 78.999,12.621 67.81,7.979 48,7.979 c -19.808,0 -30.998,4.643 -36.247,16.563 0.266,0.127 0.556,0.208 0.86,0.208 z"/>
  <path style="opacity:0.01000001;fill:#ffffff" id="path4535" d="M 83.387,22.75 C 77.82,12.153 66.786,7.979 48,7.979 29.215,7.979 18.181,12.153 12.613,22.75 h 70.774 z"/>
 </g>
</svg>
